<svg width="350" height="168" viewBox="0 0 350 168" fill="none" xmlns="http://www.w3.org/2000/svg">
<path d="M0 26.7043C0 16.3598 7.85073 7.75076 18.1689 7.01334C46.1745 5.01182 103.552 1.65174 169 2.0293C234.24 2.40565 291.461 5.435 319.563 7.19108C329.994 7.84288 338 16.5094 338 26.9605V133.301C338 143.656 330.134 152.267 319.804 152.982C292.584 154.867 237.105 158 169 158C100.895 158 45.4163 154.867 18.1962 152.982C7.86645 152.267 0 143.656 0 133.301V26.7043Z" fill="#261863"/>
<circle cx="266" cy="84" r="84" fill="white" fill-opacity="0.04"/>
<circle cx="266" cy="84" r="65" fill="white" fill-opacity="0.04"/>
<circle cx="266" cy="84" r="43" fill="white" fill-opacity="0.04"/>
</svg>
